<svg xmlns="http://www.w3.org/2000/svg" id="Layer_1" viewBox="0 0 512 512">
  
  <defs>
    
  </defs>
  <g id="aUTJoL.tif">
    <g>
      <path d="M315.4,169.8c-59.2-22.4-120.8-23.5-180.4-4.6s-69.6,30.6-104.1,52.1c9.1-19,27-26.7,41.3-38.6,81.7-51.6,182.5-59,268.2-12.5,21.9,11.9,43.4,26.2,57.7,48.9-27.7-18.3-52.2-33.9-82.7-45.4Z" fill="#1f2230"/>
      <g>
        <path d="M453.3,309.7c-33-14.9-71.1-4.4-91.8,24.2,19.8,24,55.2,38.7,83.7,26.6-10.4-5.4-19.5-9.6-27.4-18.3l34.4,8.6c8.4,2.1,17.3.6,27.4.9-7.6,9.5-17.8,15.6-29.3,19.7-37.9,13.3-79.1.5-104.9-30.5l-79.6,9.1c-38.8,4.5-76.6.3-114.3-9.1-5.2,8.6-14.6,12.1-22.7,9.3-9.1-3.1-14.1-11-13.2-21.1-28.2-10.9-53.8-24.8-78.9-42.9,51.4-50.8,112.5-78.7,185.4-78.3,50.6,2.7,98.7,18.4,140.4,46.7,5.9,4,12.6,7.7,14.7,14.7-31.9-15.8-60.9-29.7-93.8-37.9-82.8-20.7-158.5-3.1-223.4,53.7,19.4,13.7,40.1,25.2,61.4,33.5,6.4-4.4,12.7-6.5,19.8-4.1,5.3,1.8,9.9,7,12.2,14,61.2,16.8,128.9,9.2,191.5-2.2,25.5-34.3,70.8-45.8,109.4-27.7,11.3,5.3,20.3,13.3,26.7,24.1-27.2-7-37.6-3.2-64.4,1.6,10.1-10.2,23.8-13.4,36.7-14.6ZM144.4,332.2c0-5.4-4.4-9.8-9.8-9.8s-9.8,4.4-9.8,9.8,4.4,9.8,9.8,9.8,9.8-4.4,9.8-9.8Z" fill="#1f2230"/>
        <ellipse cx="213.4" cy="276.5" rx="35.2" ry="35.1" fill="#1f2230"/>
      </g>
    </g>
  </g>
</svg>